<svg xmlns="http://www.w3.org/2000/svg" height="16" width="14" viewBox="0 0 448 512"><!--!Font Awesome Free 6.5.2 by @fontawesome - https://fontawesome.com License - https://fontawesome.com/license/free Copyright 2024 Fonticons, Inc.--><path d="M336.5 88.3c-21.2-21.2-49.5-32.9-79.2-32.9s-58 11.7-79.2 32.9a112.2 112.2 0 0 0 -32.9 79.2c0 29.7 11.7 58 32.9 79.2s49.5 32.9 79.2 32.9s58-11.7 79.2-32.9c21.2-21.2 32.9-49.5 32.9-79.2c.1-29.7-11.6-58-32.8-79.2zM257.3 301.1c-19.1 0-37.2-7.8-50.2-20.8c-13-13-20.8-31.1-20.8-50.2c0-19.1 7.8-37.2 20.8-50.2c13-13 31.1-20.8 50.2-20.8c19.1 0 37.2 7.8 50.2 20.8c13 13 20.8 31.1 20.8 50.2c0 19.1-7.8 37.2-20.8 50.2c-13 13-31.1 20.8-50.2 20.8zm-91.8 75.3c-32.9-1.8-63.5-9.3-90.8-22.1c-27.2-12.8-50.7-29.8-69.4-50.2c-1.3-1.4-2.1-3.1-2.1-5c0-1.9 .8-3.6 2.1-5c18.7-20.3 42.1-37.3 69.4-50.2c27.3-12.8 57.9-20.3 90.8-22.1c-1.8 32.9-9.3 63.5-22.1 90.8c-12.8 27.2-29.8 50.7-50.2 69.4c-1.4 1.3-3.1 2.1-5 2.1c-1.9 0-3.6-.8-5-2.1zm110.1-209.3c-2.4-3-4.9-6-7.5-8.8c-2.4-2.6-5-5-7.7-7.2c-12.8-10-27.1-18.4-42.5-24.8c-15.4-6.4-31.5-11.1-48.2-13.8c-16.7-2.7-33.6-3.6-50.6-2.6c-17 .9-33.9 3.5-50.3 7.8c-16.5 4.3-32.3 10.3-47.3 17.9c-15 7.6-29 16.6-41.9 26.9c-2.6 2.1-5 4.3-7.3 6.6c-2.2 2.3-4.4 4.7-6.5 7.2c-12.3 14.6-22.5 30.6-30.5 47.9c-8 17.3-13.9 35.5-17.6 54.3c-3.7 18.8-5.3 38-4.7 57.3c.6 19.3 3.1 38.4 7.4 57c4.3 18.5 10.4 36.6 18.1 53.8c7.8 17.2 17.1 33.5 28.1 48.7c2.4 3.3 5.1 6.4 8 9.3c2.9 2.9 6 5.6 9.1 6.1c1.5 .2 3.1 .2 4.6-.2c1.5-.4 2.9-1.1 4.2-2.1c25.4-21.5 54.9-36.8 87.2-45.2c32.3-8.4 66.5-9.8 99.5-4.2c-20.9 22.8-37.1 49.9-47.5 79.8c-1.1 3.2-1.1 6.6 0 9.8c1.1 3.2 3.2 5.9 6.2 7.7c3 1.8 6.5 2.5 9.9 1.9c3.4-.6 6.5-2.4 8.9-5.1c11.9-13.7 22.1-28.8 30.4-44.9c8.3-16.1 14.8-33.1 19.3-50.8c4.5-17.7 7.1-35.8 7.6-54.1c.6-18.3-.9-36.7-4.3-54.5c-3.4-17.8-8.8-35.2-15.9-51.8c-4-9.2-8.5-18.2-13.5-26.8c-5-8.6-10.5-16.9-16.4-24.8zm118.8 107.5c-21.2-21.2-49.5-32.9-79.2-32.9s-58 11.7-79.2 32.9a112.2 112.2 0 0 0 -32.9 79.2c0 29.7 11.7 58 32.9 79.2s49.5 32.9 79.2 32.9s58-11.7 79.2-32.9c21.2-21.2 32.9-49.5 32.9-79.2c.1-29.7-11.6-58-32.8-79.2zM375.5 301.1c-19.1 0-37.2-7.8-50.2-20.8c-13-13-20.8-31.1-20.8-50.2c0-19.1 7.8-37.2 20.8-50.2c13-13 31.1-20.8 50.2-20.8c19.1 0 37.2 7.8 50.2 20.8c13 13 20.8 31.1 20.8 50.2c0 19.1-7.8 37.2-20.8 50.2c-13 13-31.1 20.8-50.2 20.8z"/></svg>